# xmcd CD database file
#
# Track frame offsets:
#	150
#	27102
#	37152
#	50605
#	62137
#	71632
#	81945
#	90922
#	101857
#	112205
#	123597
#	133345
#	143235
#	153970
#	163452
#	173032
#	182227
#	193312
#	202575
#	213137
#	224812
#	236297
#	247352
#	256362
#	266232
#
# Disc length: 3704 seconds
#
# Revision: 2
# Processed by: cddbd v1.5.2PL0 Copyright (c) Steve Scherf et al.
# Submitted via: CDex 1.51
#
DISCID=8d0e7619
DTITLE=Various Artist - Constellation Of Chicago Soul [Compilation]
DYEAR=1997
DGENRE=Soul/R&B
TTITLE0=Gene Chandler - Rainbow '65 [Full Version]
TTITLE1=Bobby Miller - Uncle Willie Time
TTITLE2=Nolan Chance - She's Gone (And She Won't Be Back)
TTITLE3=Holly Maxwell - (Happiness Will Cost You) One Thin Dime
TTITLE4=Gene Chandler - Wish You Were Here
TTITLE5=Bobby Miller - I'm For The Girls
TTITLE6=Nolan Chance - Don't Use Me
TTITLE7=Gerri Taylor - Empty Arms And Bitter Tears
TTITLE8=The Impellas - No More Tears
TTITLE9=Lee Dorsey - Messed Around (And Fell In Love)
TTITLE10=Nolan Chance - If He Makes You (He's Free To Take You)
TTITLE11=Bobby Miller - The Big Question
TTITLE12=Holly Maxwell - It's Impossible
TTITLE13=Sonny Holiday - Baby, Baby
TTITLE14=Lee Dorsey - I Gotta Find A New Love
TTITLE15=Bobby Miller - This Is My Dance
TTITLE16=Gerri Taylor - Come Home, I'm Lonely
TTITLE17=Bobby Miller - Simon Says
TTITLE18=Holly Maxwell - Let Him Go For Himself
TTITLE19=Nolan Chance - Just Like The Weather
TTITLE20=Holly Maxwell - Only When You're Lonely
TTITLE21=Bobby Miller - Love Take The Case (For Me)
TTITLE22=Gene Chandler - I Can't Save It
TTITLE23=The Peaches - Baby Think It Over
TTITLE24=Gene Chandler - I Can Take Care Of Myself
EXTD=Northern Soul YEAR: 1997
EXTT0=
EXTT1=
EXTT2=
EXTT3=
EXTT4=
EXTT5=
EXTT6=
EXTT7=
EXTT8=
EXTT9=
EXTT10=
EXTT11=
EXTT12=
EXTT13=
EXTT14=
EXTT15=
EXTT16=
EXTT17=
EXTT18=
EXTT19=
EXTT20=
EXTT21=
EXTT22=
EXTT23=
EXTT24=
PLAYORDER=
